<?xml version="1.0" standalone="no"?><!DOCTYPE svg PUBLIC "-//W3C//DTD SVG 1.1//EN" "http://www.w3.org/Graphics/SVG/1.1/DTD/svg11.dtd"><svg t="1694234035302" class="icon" viewBox="0 0 1024 1024" version="1.1" xmlns="http://www.w3.org/2000/svg" p-id="13257" xmlns:xlink="http://www.w3.org/1999/xlink" width="128" height="128"><path d="M216.8 69.8h18c1.3 0.2 2.6 0.3 4 0.5 41.8 2.7 82.6 14.1 121.4 29.2 53.4 21 103.8 49 151.5 80.8 1.1 1 2.4 0 3.5-0.6 48-31.9 98.7-59.9 152.4-80.9 41.1-15.9 84.4-27.4 128.7-28.9h18c5.6 0.9 11.3 1 16.9 1.8 16 2.1 31.7 6.4 46.4 13.2 22.6 10.3 42.1 27.3 55 48.5 15.6 25.1 22 54.9 22.5 84.1 0.6 33.7-5.6 67.2-15 99.4-14.1 47.5-35.2 92.6-59.4 135.7-11.3 20.3-23.9 39.9-36.5 59.4 4.8 8.3 10.5 16 15.4 24.2 20.7 33 39.4 67.3 55.2 102.9 15.3 34.7 28 70.8 35 108.2 6.4 34.6 8.2 70.8-0.9 105.1-6.8 25.8-20.9 50-41.3 67.4-23.3 20.2-53.8 30.6-84.2 33.3-36.8 3.3-73.9-2.6-109.4-12.4-34.9-9.8-68.6-23.6-101.1-39.7-34.2-16.8-67.1-36.3-98.9-57.4-0.9-0.8-2-0.3-2.8 0.3-28.9 19.3-58.8 37.1-89.7 52.8-41.8 21.2-85.5 39.1-131.3 49.4-32 7.1-65.3 10.4-97.9 5.8-28.5-4.1-56.5-15.5-77.7-35.4-20.4-18.7-33.6-44.4-39.4-71.3-7.6-34.5-4.8-70.3 2.1-104.7 7.2-34.6 19-68.1 33.2-100.4 14.4-32.6 31.2-64.1 49.8-94.5 6.8-11.5 14.4-22.5 21.4-33.9-3.4-5.8-7.3-11.1-10.8-16.8-30.9-48.4-58.2-99.9-77.4-154.5-12.7-36.5-21.9-74.6-22.6-113.4-0.6-27.6 3.6-55.7 15.5-80.8 10.9-23 28.7-42.7 50.7-55.4 24.1-14.2 52.1-20 79.7-21m283.2 320c-30.7 3-59.8 18.4-80 41.7-21.6 24.7-32.4 58.2-29.5 90.8 2.5 32 18.4 62.7 42.9 83.3 24 20.6 56.2 31.1 87.7 28.9 33.8-2 66.4-19 87.5-45.5 21.5-26.3 31-61.9 25.8-95.4-4.5-31-21.5-59.8-46.3-78.9-24.6-19.2-56.9-28.3-88.1-24.9z" p-id="13258"></path><path d="M502.6 439.1c14.4-2.1 29.4 0.3 42.5 6.6 12.2 6 22.8 15.4 30.1 26.9 9.2 14.3 13.1 31.9 10.8 48.8-1.7 13.9-7.6 27.1-16.6 37.8-10.5 12.6-25.4 21.6-41.5 24.9-14.5 3-29.9 1.6-43.5-4.2-14-5.9-26-16.2-34-29.1-8.8-14-12.5-31-10.6-47.4 1.9-16.6 9.7-32.5 21.8-44 11-11 25.7-18.1 41-20.3z" p-id="13259"></path></svg>